<?xml version="1.0" encoding="UTF-8" standalone="no"?><svg xmlns="http://www.w3.org/2000/svg" xmlns:xlink="http://www.w3.org/1999/xlink" contentScriptType="application/ecmascript" contentStyleType="text/css" height="397px" preserveAspectRatio="none" style="width:704px;height:397px;" version="1.1" viewBox="0 0 704 397" width="704px" zoomAndPan="magnify"><defs><filter height="300%" id="f1xirw1xjfw5ry" width="300%" x="-1" y="-1"><feGaussianBlur result="blurOut" stdDeviation="2.0"/><feColorMatrix in="blurOut" result="blurOut2" type="matrix" values="0 0 0 0 0 0 0 0 0 0 0 0 0 0 0 0 0 0 .4 0"/><feOffset dx="4.0" dy="4.0" in="blurOut2" result="blurOut3"/><feBlend in="SourceGraphic" in2="blurOut3" mode="normal"/></filter></defs><g><line style="stroke: #A80036; stroke-width: 1.0; stroke-dasharray: 5.0,5.0;" x1="31" x2="31" y1="86.2969" y2="310.2266"/><line style="stroke: #A80036; stroke-width: 1.0; stroke-dasharray: 5.0,5.0;" x1="157" x2="157" y1="86.2969" y2="310.2266"/><line style="stroke: #A80036; stroke-width: 1.0; stroke-dasharray: 5.0,5.0;" x1="286" x2="286" y1="86.2969" y2="310.2266"/><line style="stroke: #A80036; stroke-width: 1.0; stroke-dasharray: 5.0,5.0;" x1="383" x2="383" y1="86.2969" y2="310.2266"/><line style="stroke: #A80036; stroke-width: 1.0; stroke-dasharray: 5.0,5.0;" x1="492" x2="492" y1="86.2969" y2="310.2266"/><line style="stroke: #A80036; stroke-width: 1.0; stroke-dasharray: 5.0,5.0;" x1="572" x2="572" y1="86.2969" y2="310.2266"/><line style="stroke: #A80036; stroke-width: 1.0; stroke-dasharray: 5.0,5.0;" x1="651" x2="651" y1="86.2969" y2="310.2266"/><text fill="#000000" font-family="sans-serif" font-size="14" lengthAdjust="spacingAndGlyphs" textLength="41" x="8" y="82.9951">Player</text><ellipse cx="31.5" cy="13" fill="#FEFECE" filter="url(#f1xirw1xjfw5ry)" rx="8" ry="8" style="stroke: #A80036; stroke-width: 2.0;"/><path d="M31.5,21 L31.5,48 M18.5,29 L44.5,29 M31.5,48 L18.5,63 M31.5,48 L44.5,63 " fill="none" filter="url(#f1xirw1xjfw5ry)" style="stroke: #A80036; stroke-width: 2.0;"/><text fill="#000000" font-family="sans-serif" font-size="14" lengthAdjust="spacingAndGlyphs" textLength="41" x="8" y="322.2217">Player</text><ellipse cx="31.5" cy="335.5234" fill="#FEFECE" filter="url(#f1xirw1xjfw5ry)" rx="8" ry="8" style="stroke: #A80036; stroke-width: 2.0;"/><path d="M31.5,343.5234 L31.5,370.5234 M18.5,351.5234 L44.5,351.5234 M31.5,370.5234 L18.5,385.5234 M31.5,370.5234 L44.5,385.5234 " fill="none" filter="url(#f1xirw1xjfw5ry)" style="stroke: #A80036; stroke-width: 2.0;"/><rect fill="#FEFECE" filter="url(#f1xirw1xjfw5ry)" height="30.2969" style="stroke: #A80036; stroke-width: 1.5;" width="115" x="98" y="51"/><text fill="#000000" font-family="sans-serif" font-size="14" lengthAdjust="spacingAndGlyphs" textLength="101" x="105" y="70.9951">GameManager</text><rect fill="#FEFECE" filter="url(#f1xirw1xjfw5ry)" height="30.2969" style="stroke: #A80036; stroke-width: 1.5;" width="115" x="98" y="309.2266"/><text fill="#000000" font-family="sans-serif" font-size="14" lengthAdjust="spacingAndGlyphs" textLength="101" x="105" y="329.2217">GameManager</text><rect fill="#FEFECE" filter="url(#f1xirw1xjfw5ry)" height="30.2969" style="stroke: #A80036; stroke-width: 1.5;" width="111" x="229" y="51"/><text fill="#000000" font-family="sans-serif" font-size="14" lengthAdjust="spacingAndGlyphs" textLength="97" x="236" y="70.9951">NodeManager</text><rect fill="#FEFECE" filter="url(#f1xirw1xjfw5ry)" height="30.2969" style="stroke: #A80036; stroke-width: 1.5;" width="111" x="229" y="309.2266"/><text fill="#000000" font-family="sans-serif" font-size="14" lengthAdjust="spacingAndGlyphs" textLength="97" x="236" y="329.2217">NodeManager</text><rect fill="#FEFECE" filter="url(#f1xirw1xjfw5ry)" height="30.2969" style="stroke: #A80036; stroke-width: 1.5;" width="53" x="355" y="51"/><text fill="#000000" font-family="sans-serif" font-size="14" lengthAdjust="spacingAndGlyphs" textLength="39" x="362" y="70.9951">UnitAI</text><rect fill="#FEFECE" filter="url(#f1xirw1xjfw5ry)" height="30.2969" style="stroke: #A80036; stroke-width: 1.5;" width="53" x="355" y="309.2266"/><text fill="#000000" font-family="sans-serif" font-size="14" lengthAdjust="spacingAndGlyphs" textLength="39" x="362" y="329.2217">UnitAI</text><rect fill="#FEFECE" filter="url(#f1xirw1xjfw5ry)" height="30.2969" style="stroke: #A80036; stroke-width: 1.5;" width="91" x="445" y="51"/><text fill="#000000" font-family="sans-serif" font-size="14" lengthAdjust="spacingAndGlyphs" textLength="77" x="452" y="70.9951">Pathfinding</text><rect fill="#FEFECE" filter="url(#f1xirw1xjfw5ry)" height="30.2969" style="stroke: #A80036; stroke-width: 1.5;" width="91" x="445" y="309.2266"/><text fill="#000000" font-family="sans-serif" font-size="14" lengthAdjust="spacingAndGlyphs" textLength="77" x="452" y="329.2217">Pathfinding</text><rect fill="#FEFECE" filter="url(#f1xirw1xjfw5ry)" height="30.2969" style="stroke: #A80036; stroke-width: 1.5;" width="41" x="550" y="51"/><text fill="#000000" font-family="sans-serif" font-size="14" lengthAdjust="spacingAndGlyphs" textLength="27" x="557" y="70.9951">Unit</text><rect fill="#FEFECE" filter="url(#f1xirw1xjfw5ry)" height="30.2969" style="stroke: #A80036; stroke-width: 1.5;" width="41" x="550" y="309.2266"/><text fill="#000000" font-family="sans-serif" font-size="14" lengthAdjust="spacingAndGlyphs" textLength="27" x="557" y="329.2217">Unit</text><rect fill="#FEFECE" filter="url(#f1xirw1xjfw5ry)" height="30.2969" style="stroke: #A80036; stroke-width: 1.5;" width="88" x="605" y="51"/><text fill="#000000" font-family="sans-serif" font-size="14" lengthAdjust="spacingAndGlyphs" textLength="74" x="612" y="70.9951">EnemyUnit</text><rect fill="#FEFECE" filter="url(#f1xirw1xjfw5ry)" height="30.2969" style="stroke: #A80036; stroke-width: 1.5;" width="88" x="605" y="309.2266"/><text fill="#000000" font-family="sans-serif" font-size="14" lengthAdjust="spacingAndGlyphs" textLength="74" x="612" y="329.2217">EnemyUnit</text><polygon fill="#A80036" points="145.5,113.4297,155.5,117.4297,145.5,121.4297,149.5,117.4297" style="stroke: #A80036; stroke-width: 1.0;"/><line style="stroke: #A80036; stroke-width: 1.0;" x1="31.5" x2="151.5" y1="117.4297" y2="117.4297"/><text fill="#000000" font-family="sans-serif" font-size="13" lengthAdjust="spacingAndGlyphs" textLength="102" x="38.5" y="112.3638">Issue command</text><polygon fill="#A80036" points="274.5,142.5625,284.5,146.5625,274.5,150.5625,278.5,146.5625" style="stroke: #A80036; stroke-width: 1.0;"/><line style="stroke: #A80036; stroke-width: 1.0;" x1="157.5" x2="280.5" y1="146.5625" y2="146.5625"/><text fill="#000000" font-family="sans-serif" font-size="13" lengthAdjust="spacingAndGlyphs" textLength="105" x="164.5" y="141.4966">Find target node</text><polygon fill="#A80036" points="371.5,171.6953,381.5,175.6953,371.5,179.6953,375.5,175.6953" style="stroke: #A80036; stroke-width: 1.0;"/><line style="stroke: #A80036; stroke-width: 1.0;" x1="286.5" x2="377.5" y1="175.6953" y2="175.6953"/><text fill="#000000" font-family="sans-serif" font-size="13" lengthAdjust="spacingAndGlyphs" textLength="73" x="293.5" y="170.6294">Assign task</text><polygon fill="#A80036" points="480.5,200.8281,490.5,204.8281,480.5,208.8281,484.5,204.8281" style="stroke: #A80036; stroke-width: 1.0;"/><line style="stroke: #A80036; stroke-width: 1.0;" x1="383.5" x2="486.5" y1="204.8281" y2="204.8281"/><text fill="#000000" font-family="sans-serif" font-size="13" lengthAdjust="spacingAndGlyphs" textLength="85" x="390.5" y="199.7622">Request path</text><polygon fill="#A80036" points="394.5,229.9609,384.5,233.9609,394.5,237.9609,390.5,233.9609" style="stroke: #A80036; stroke-width: 1.0;"/><line style="stroke: #A80036; stroke-width: 1.0; stroke-dasharray: 2.0,2.0;" x1="388.5" x2="491.5" y1="233.9609" y2="233.9609"/><text fill="#000000" font-family="sans-serif" font-size="13" lengthAdjust="spacingAndGlyphs" textLength="29" x="400.5" y="228.895">Path</text><polygon fill="#A80036" points="560.5,259.0938,570.5,263.0938,560.5,267.0938,564.5,263.0938" style="stroke: #A80036; stroke-width: 1.0;"/><line style="stroke: #A80036; stroke-width: 1.0;" x1="383.5" x2="566.5" y1="263.0938" y2="263.0938"/><text fill="#000000" font-family="sans-serif" font-size="13" lengthAdjust="spacingAndGlyphs" textLength="106" x="390.5" y="258.0278">Move along path</text><polygon fill="#A80036" points="639,288.2266,649,292.2266,639,296.2266,643,292.2266" style="stroke: #A80036; stroke-width: 1.0;"/><line style="stroke: #A80036; stroke-width: 1.0;" x1="572.5" x2="645" y1="292.2266" y2="292.2266"/><text fill="#000000" font-family="sans-serif" font-size="13" lengthAdjust="spacingAndGlyphs" textLength="41" x="579.5" y="287.1606">Attack</text><!--MD5=[f357162df27896b5a769292b57feec87]
@startuml
actor Player
participant GameManager
participant NodeManager
participant UnitAI
participant Pathfinding
participant Unit
participant EnemyUnit

Player -> GameManager: Issue command
GameManager -> NodeManager: Find target node
NodeManager -> UnitAI: Assign task
UnitAI -> Pathfinding: Request path
Pathfinding - -> UnitAI: Path
UnitAI -> Unit: Move along path
Unit -> EnemyUnit: Attack
@enduml

PlantUML version 1.2020.02(Sun Mar 01 10:22:07 UTC 2020)
(GPL source distribution)
Java Runtime: OpenJDK Runtime Environment
JVM: OpenJDK 64-Bit Server VM
Java Version: 21.0.2+13-58
Operating System: Linux
Default Encoding: UTF-8
Language: en
Country: null
--></g></svg>